<svg data-name="MARK Logotype" xmlns="http://www.w3.org/2000/svg" width="728.637" height="197.648"><path d="M194.927 197.247h-6.382V5.221h-.58l-84.99 192.026h-9.863L6.962 5.221h-.58v192.026H0V0h11.602l86.151 191.445h.87L183.323 0h11.604zM728.637 197.247h-9.862L615.22 99.783h-24.656v97.464h-6.382V0h6.382v93.982h24.656L714.713 0h8.993L620.44 96.593zM545.682 197.647l-41.176-90.072c29.726-2.979 37.037-14.849 37.042-53.332v-.044C541.541 7.537 530.801 0 482.375 0h-76.58v197.247h6.382v-88.805h70.198c5.604 0 10.698-.103 15.334-.354l40.784 89.56zm-64.468-95.007h-69.037V5.801h69.037c45.722 0 53.912 5.493 53.95 48.43-.034 35.393-5.635 45.325-33.228 47.723l-.21-.46-.46.517c-5.718.465-12.34.629-20.052.629zM374.178 197.244h6.39L306.888.004h-10.44l-76.29 197.24h6.38l11.167-29.321h125.48zm-134.263-35.122l5.183-13.608 2.32-5.8 53.09-137.49h2.03l51.05 137.49 2.32 5.8 5.102 13.608z"/></svg>