<svg xmlns="http://www.w3.org/2000/svg" width="837" height="290" viewBox="0 0 837 290"><g fill="none" fill-rule="evenodd"><path fill="#FFF" d="M0 0h837v290H0z"/><path fill="#000" fill-rule="nonzero" d="M248.927 243.247h-6.382V51.221h-.58l-84.99 192.026h-9.863L60.962 51.221h-.58v192.026H54V46h11.602l86.151 191.445h.87L237.323 46h11.604v197.247Zm533.71 0h-9.862L669.22 145.783h-24.656v97.464h-6.382V46h6.382v93.982h24.656L768.713 46h8.993L674.44 142.593l108.197 100.654Zm-182.955.401-41.176-90.073c29.726-2.979 37.037-14.849 37.042-53.332v-.044C595.541 53.537 584.801 46 536.375 46h-76.58v197.247h6.382v-88.805h70.198c5.604 0 10.698-.103 15.334-.354l40.784 89.56h7.189Zm-64.468-95.008h-69.037V51.801h69.037c45.722 0 53.912 5.493 53.95 48.43-.034 35.393-5.635 45.325-33.228 47.723l-.21-.46-.46.517c-5.718.465-12.34.629-20.052.629Zm-107.036 94.604h6.39l-73.68-197.24h-10.44l-76.29 197.24h6.38l11.167-29.321h125.48l10.993 29.321Zm-134.263-35.122 5.183-13.608 2.32-5.8 53.09-137.49h2.03l51.05 137.49 2.32 5.8 5.102 13.608H293.915Z"/></g></svg>